<svg width="55" height="53" viewBox="0 0 55 53" fill="none" xmlns="http://www.w3.org/2000/svg">
<path d="M39.729 15.5174C39.9086 15.6361 40.115 15.6954 40.3213 15.6954C40.5277 15.6954 40.734 15.6361 40.9137 15.5174C41.5803 15.0768 47.4651 11.156 48.7578 9.18844C49.2897 8.37869 49.9855 7.09425 49.8892 5.29665C49.7303 2.32654 47.3329 0 44.431 0C42.6749 0 41.2094 1.11751 40.3284 1.99633C39.4646 1.11289 38.0153 0 36.195 0C33.2934 0 30.896 2.32654 30.7372 5.29687C30.641 7.09844 31.3372 8.38116 31.8694 9.1894C33.1543 11.1407 39.0599 15.0752 39.729 15.5174ZM32.8825 5.41148C32.9787 3.61228 34.4647 2.14844 36.195 2.14844C37.9888 2.14844 39.4061 4.22469 39.4182 4.24284C39.6137 4.53782 39.943 4.71625 40.2968 4.72194C40.6529 4.72839 40.9855 4.5577 41.1906 4.26927C41.6101 3.67941 43.0101 2.14844 44.431 2.14844C46.1614 2.14844 47.6475 3.61217 47.7439 5.41148C47.7926 6.32339 47.5588 7.10016 46.9621 8.00884C46.2331 9.11851 42.7272 11.7007 40.3212 13.3288C37.9063 11.6951 34.388 9.10766 33.6639 8.00798C33.0675 7.10209 32.8338 6.32554 32.8825 5.41148Z" fill="#5E824F"/>
<path d="M10.7003 20.379C10.8799 20.4977 11.0863 20.557 11.2926 20.557C11.499 20.557 11.7053 20.4977 11.8849 20.379C12.6699 19.8602 16.6328 17.2007 17.5691 15.7756C17.9723 15.1617 18.4999 14.1868 18.4263 12.8136C18.3044 10.5311 16.4589 8.74316 14.2248 8.74316C12.9978 8.74316 11.9785 9.41853 11.3005 10.0397C10.6325 9.41584 9.61801 8.74316 8.34872 8.74316C6.11488 8.74316 4.26937 10.5311 4.14723 12.8137C4.07386 14.1896 4.60184 15.1636 5.00543 15.7766C5.93624 17.1902 9.91267 19.8584 10.7003 20.379ZM6.29266 12.9283C6.35282 11.8053 7.27514 10.8917 8.34882 10.8917C9.27179 10.8917 10.1385 11.8739 10.392 12.2482C10.5881 12.544 10.9177 12.7238 11.2726 12.7286C11.2776 12.7286 11.2824 12.7287 11.2872 12.7287C11.6367 12.7287 11.9648 12.5587 12.1661 12.2723C12.371 11.9806 13.3214 10.8916 14.2249 10.8916C15.2987 10.8916 16.221 11.8052 16.2812 12.9282C16.3125 13.516 16.1655 13.9992 15.7735 14.5959C15.3163 15.2918 13.0527 16.9877 11.2926 18.1885C9.52595 16.984 7.25441 15.2853 6.80002 14.5952C6.40825 14.0003 6.2613 13.5173 6.29266 12.9283Z" fill="#5E824F"/>
<path d="M51.0388 44.7995H50.8596V41.6354C50.8596 35.3958 48.4299 29.5298 44.0178 25.1177C40.6795 21.7794 36.5086 19.5759 31.9735 18.7012C32.06 18.3455 32.1043 17.979 32.1043 17.6101C32.1043 15.0696 30.0388 13.0027 27.5001 13.0027C24.9614 13.0027 22.8959 15.0696 22.8959 17.6101C22.8959 17.979 22.9403 18.3455 23.0267 18.7012C18.4915 19.5759 14.3207 21.7795 10.9824 25.1177C6.57035 29.5298 4.14058 35.3958 4.14058 41.6354V44.7995H3.9614C1.77697 44.7995 0 46.5776 0 48.7633V51.5499C0 52.1432 0.480928 52.6242 1.07422 52.6242H53.9258C54.519 52.6242 55 52.1432 55 51.5499V48.7633C55 46.5776 53.223 44.7995 51.0388 44.7995ZM25.0442 17.6101C25.0442 16.2542 26.1459 15.1511 27.5 15.1511C28.8541 15.1511 29.9558 16.2542 29.9558 17.6101C29.9558 17.8764 29.9127 18.14 29.8297 18.3899C29.0604 18.3142 28.2832 18.2759 27.5 18.2759C26.7168 18.2759 25.9396 18.3143 25.1703 18.3899C25.0872 18.1399 25.0442 17.8763 25.0442 17.6101ZM6.2888 41.6354C6.2888 29.9396 15.8041 20.4242 27.5 20.4242C39.1959 20.4242 48.7112 29.9396 48.7112 41.6354V44.7995H6.2888V41.6354ZM52.8516 50.4757H2.14844V48.7633C2.14844 47.7623 2.96162 46.9479 3.96118 46.9479H51.0388C52.0384 46.9479 52.8516 47.7623 52.8516 48.7633V50.4757Z" fill="#5E824F"/>
</svg>
