<svg width="55" height="55" viewBox="0 0 55 55" fill="none" xmlns="http://www.w3.org/2000/svg">
<path d="M4.45944 0V55H50.5405V0H4.45944ZM13.3784 25.2703H8.9189V16.3514H13.3784V25.2703ZM13.3784 29.7297V38.6486H8.9189V29.7297H13.3784ZM13.3784 4.45946V11.8919H8.9189V4.45946H13.3784ZM8.9189 43.1081H13.3784V50.5405H8.9189V43.1081ZM46.0811 50.5405H17.8378V4.45946H46.0811V50.5405Z" fill="#5E824F"/>
<path d="M41.3597 45.6883V29.3795C41.3597 25.037 38.3574 21.384 34.3201 20.383V14.865H35.0634V10.4055H29.1174V14.865H29.8607V20.383C25.8232 21.384 22.8211 25.037 22.8211 29.3795V45.6885H41.3597V45.6883ZM27.2804 29.3795C27.2804 26.7273 29.4382 24.5697 32.0903 24.5697C34.7423 24.5697 36.9001 26.7274 36.9001 29.3795V41.229H27.2803V29.3795H27.2804Z" fill="#5E824F"/>
</svg>
