<svg width="55" height="55" viewBox="0 0 55 55" fill="none" xmlns="http://www.w3.org/2000/svg">
<g clip-path="url(#clip0)">
<path d="M48.6355 19.455L44.453 15.132L45.2955 9.1776C45.4244 8.26689 44.8078 7.41802 43.9017 7.25934L37.9778 6.22087L35.1579 0.906445C34.7269 0.0941751 33.7286 -0.230006 32.903 0.17397L27.5006 2.8147L22.0968 0.17397C21.2704 -0.230006 20.2731 0.0944024 19.8418 0.9069L17.0231 6.22087L11.0985 7.25934C10.1926 7.41802 9.57582 8.26689 9.70472 9.1776L10.547 15.132L6.36448 19.455C5.72499 20.1161 5.72499 21.165 6.36471 21.8261L10.547 26.1487L9.70472 32.1062C9.57605 33.0167 10.1926 33.8656 11.0985 34.0242L15.8401 34.8554V53.2953C15.8401 53.8861 16.1461 54.4349 16.6487 54.7454C16.9224 54.9148 17.2334 55.0003 17.5451 55.0003C17.8056 55.0003 18.0668 54.9407 18.3076 54.8202L27.5008 50.2253L36.6927 54.8202C37.221 55.0844 37.8489 55.0562 38.3515 54.7454C38.8542 54.4347 39.1602 53.8859 39.1602 53.295V34.8556L43.9019 34.024C44.8079 33.8651 45.4244 33.0165 45.2957 32.1058L44.4532 26.1482L48.6355 21.8259C49.2748 21.1652 49.2748 20.1161 48.6355 19.455ZM28.263 46.7939C27.7834 46.5541 27.2184 46.5538 26.7383 46.7939L19.2501 50.5368V39.2598L19.8421 40.3758C20.2731 41.1885 21.2716 41.5125 22.0972 41.1082L27.5008 38.4657L32.9027 41.1082C33.1437 41.226 33.3992 41.2819 33.6509 41.2819C34.2624 41.2819 34.8526 40.9514 35.1581 40.376L35.7501 39.2609V50.5368L28.263 46.7939ZM41.4226 24.3763C41.0568 24.7544 40.8861 25.28 40.9597 25.8008L41.6879 30.9502L36.5681 31.848C36.0502 31.9387 35.603 32.2635 35.3564 32.728L32.9191 37.3202L28.2499 35.0361C28.0134 34.9206 27.757 34.8627 27.5006 34.8627C27.2441 34.8627 26.9877 34.9204 26.7515 35.0361L22.0811 37.3202L19.6447 32.7282C19.3983 32.2635 18.9511 31.9387 18.433 31.848L13.3121 30.9502L14.04 25.8006C14.1137 25.28 13.9429 24.7542 13.5772 24.3763L9.96229 20.6403L13.5774 16.9038C13.9429 16.5258 14.1137 16.0002 14.04 15.4796L13.3121 10.3334L18.433 9.43562C18.9511 9.34492 19.3983 9.01983 19.645 8.55515L22.0813 3.96184L26.7519 6.24429C27.2243 6.47526 27.777 6.47526 28.2494 6.24429L32.9186 3.96184L35.3564 8.55538C35.6028 9.01983 36.05 9.34469 36.5681 9.43562L41.6879 10.3331L40.9597 15.4793C40.8861 16.0002 41.0568 16.5258 41.4224 16.9038L45.0375 20.6403L41.4226 24.3763Z" fill="#5E824F"/>
<path d="M27.5006 8.98132C21.0708 8.98132 15.8398 14.2114 15.8398 20.6402C15.8398 27.0704 21.0708 32.3016 27.5006 32.3016C33.9294 32.3016 39.1597 27.0704 39.1597 20.6402C39.1597 14.2114 33.9294 8.98132 27.5006 8.98132ZM27.5006 28.8916C22.9511 28.8916 19.2499 25.1901 19.2499 20.6402C19.2499 16.0917 22.9511 12.3914 27.5006 12.3914C32.0491 12.3914 35.7497 16.0917 35.7497 20.6402C35.7497 25.1901 32.0491 28.8916 27.5006 28.8916Z" fill="#5E824F"/>
<path d="M30.9763 16.3147L25.9397 21.3502L24.023 19.4358C23.3569 18.7702 22.2773 18.7708 21.6116 19.4372C20.9462 20.1035 20.9469 21.1829 21.6132 21.8483L24.7352 24.9669C25.068 25.2995 25.5041 25.4657 25.9401 25.4657C26.3764 25.4657 26.8128 25.2992 27.1457 24.9664L33.3872 18.7263C34.0533 18.0607 34.0533 16.981 33.3874 16.3149C32.7218 15.6491 31.6421 15.6488 30.9763 16.3147Z" fill="#5E824F"/>
</g>
<defs>
<clipPath id="clip0">
<rect width="55" height="55" fill="white"/>
</clipPath>
</defs>
</svg>
